<svg width="23" height="24" viewBox="0 0 23 24" fill="none" xmlns="http://www.w3.org/2000/svg">
<path d="M16.2343 24H3.73444C2.21741 24 0.984375 22.767 0.984375 21.2499V7.74994C0.984375 6.23291 2.21741 5.00006 3.73444 5.00006H4.23431C4.64832 5.00006 4.98431 5.33606 4.98431 5.75006C4.98431 6.16406 4.64832 6.50006 4.23431 6.50006H3.73444C3.04541 6.50006 2.48438 7.06091 2.48438 7.74994V21.2499C2.48438 21.939 3.04541 22.5 3.73444 22.5H16.2343C16.9233 22.5 17.4844 21.939 17.4844 21.2499V20.7501C17.4844 20.3361 17.8204 20.0001 18.2344 20.0001C18.6484 20.0001 18.9844 20.3361 18.9844 20.7501V21.2499C18.9844 22.767 17.7513 24 16.2343 24Z" fill="#B5B5B5"/>
<path d="M20.2344 18H9.73444C8.21741 18 6.98438 16.767 6.98438 15.2499V2.75006C6.98438 1.23303 8.21741 0 9.73444 0H20.2344C21.7515 0 22.9843 1.23303 22.9843 2.75006V15.2499C22.9843 16.767 21.7515 18 20.2344 18ZM9.73444 1.5C9.04541 1.5 8.48438 2.06104 8.48438 2.75006V15.2499C8.48438 15.939 9.04541 16.5 9.73444 16.5H20.2344C20.9235 16.5 21.4843 15.939 21.4843 15.2499V2.75006C21.4843 2.06104 20.9235 1.5 20.2344 1.5H9.73444Z" fill="#B5B5B5"/>
</svg>
